<svg version="1.1" id="Layer_1" xmlns="http://www.w3.org/2000/svg" xmlns:xlink="http://www.w3.org/1999/xlink" x="0px" y="0px"
	 width="100%" viewBox="0 0 300 300" enable-background="new 0 0 300 300" xml:space="preserve">
<path fill="#030303" opacity="1.000000" stroke="none" 
	d="
M168.000000,301.000000 
	C112.000008,301.000000 56.500019,301.000000 1.000022,301.000000 
	C1.000015,201.000031 1.000015,101.000053 1.000007,1.000063 
	C100.999962,1.000042 200.999924,1.000042 300.999908,1.000021 
	C300.999939,100.999939 300.999939,200.999878 300.999969,300.999908 
	C256.833344,301.000000 212.666672,301.000000 168.000000,301.000000 
M258.013458,112.513542 
	C258.269440,112.469711 258.525421,112.425873 258.781403,112.382042 
	C258.642914,112.104744 258.504425,111.827446 258.253876,110.835335 
	C255.217819,100.487549 249.172836,93.045723 238.530670,89.687126 
	C234.110565,88.292175 229.967636,86.040588 225.586060,84.498497 
	C191.107086,72.363754 156.826035,72.914413 122.787819,86.317047 
	C119.439819,87.635330 116.516953,89.545815 118.129539,93.697075 
	C119.737541,97.836571 122.970459,97.246429 126.455978,95.903969 
	C165.307251,80.940346 203.312241,82.936150 240.353699,101.936256 
	C246.370926,105.022751 252.114182,108.643440 258.013458,112.513542 
M209.305283,132.018906 
	C233.560333,140.846832 251.089340,157.335434 263.885864,181.143890 
	C264.532562,173.995285 268.374237,168.286163 264.527130,162.658234 
	C252.173965,144.586716 235.960663,131.207001 215.317017,123.485756 
	C193.604034,115.364563 171.001068,114.569389 148.299545,116.242699 
	C142.055130,116.702980 135.575470,119.124420 129.985321,122.109543 
	C121.447601,126.668663 118.202568,137.221146 120.697746,147.943375 
	C122.817345,157.051666 128.473572,161.926483 138.724945,163.118484 
	C143.011551,163.616913 147.350708,163.712540 151.670441,163.862793 
	C155.662537,164.001648 159.696930,163.648544 163.646317,164.096939 
	C168.042587,164.596054 171.672409,166.867142 172.698090,171.473953 
	C173.628708,175.653809 171.037018,178.686737 167.689240,180.398071 
	C162.098053,183.256210 156.422867,186.528870 150.393219,187.855911 
	C112.679504,196.156235 67.115265,186.165100 38.652790,143.876541 
	C37.798691,142.607559 36.830399,141.415421 35.899525,140.166214 
	C32.401730,150.416138 34.623486,158.705215 42.782917,165.306366 
	C44.325363,166.554260 45.552750,168.183395 47.002411,169.555374 
	C74.443123,195.525284 107.424782,204.024506 144.169907,199.769135 
	C155.646072,198.440079 166.533401,194.648453 175.707352,187.144287 
	C186.356567,178.433365 185.589630,163.808823 173.571472,157.167694 
	C169.153168,154.726181 163.499588,154.126389 158.314423,153.566360 
	C151.885727,152.872025 145.320023,153.465179 138.884979,152.805222 
	C133.094788,152.211411 130.878189,149.366165 130.204437,143.591797 
	C129.138123,134.452972 133.691238,128.672577 144.860657,127.155258 
	C166.347565,124.236328 187.691910,125.141914 209.305283,132.018906 
M69.561180,209.925659 
	C86.054115,217.287872 103.311546,221.076584 121.392593,221.103317 
	C138.590240,221.128738 155.040009,217.477219 171.149246,211.634903 
	C179.764877,208.510300 186.242233,211.064026 189.849579,218.093567 
	C193.514297,225.234924 191.570541,233.464233 184.599319,238.405151 
	C181.376053,240.689682 177.742218,242.541412 174.063919,244.013000 
	C154.476669,251.849365 133.960983,253.154373 113.175926,252.193634 
	C104.531036,251.794067 95.895309,251.196320 87.255417,250.688690 
	C96.978844,257.955505 106.859901,263.956909 119.320412,262.869080 
	C131.574402,261.799255 143.944305,261.577545 156.079468,259.757507 
	C168.937515,257.829041 181.375229,253.893280 191.902115,245.668732 
	C201.796021,237.938721 204.738800,224.810303 199.193466,213.830292 
	C193.383102,202.325500 182.243011,197.724915 169.349533,201.546356 
	C166.642685,202.348602 163.975067,203.283783 161.292114,204.166061 
	C126.102722,215.737915 92.325531,213.232346 60.598049,193.388229 
	C52.217308,188.146469 44.627987,181.639343 36.297482,175.431747 
	C36.870556,177.964752 37.493725,180.320190 37.926357,182.710129 
	C39.001125,188.647263 41.258472,193.626480 46.950592,196.744202 
	C54.379070,200.812988 61.576885,205.302902 69.561180,209.925659 
M99.068703,51.529709 
	C83.816849,60.971039 75.551674,74.669907 76.299675,92.591255 
	C77.084816,111.402512 86.480988,125.586235 102.751945,135.125885 
	C105.646378,136.822891 108.251663,136.424606 110.083305,133.538712 
	C112.001144,130.517029 110.718361,128.192123 108.048935,126.371895 
	C105.854988,124.875877 103.535545,123.539909 101.465538,121.889870 
	C81.680939,106.119209 81.357964,76.537971 101.226295,62.541218 
	C107.104088,58.400459 114.017365,55.354572 120.873665,53.048187 
	C141.348297,46.160725 162.653580,45.621567 184.008820,46.032150 
	C185.856445,46.067677 187.705368,46.036865 189.553680,46.036865 
	C189.524811,45.606182 189.495926,45.175503 189.467056,44.744820 
	C158.771881,34.932724 128.718185,35.129406 99.068703,51.529709 
M64.515907,158.983887 
	C89.456261,178.556793 118.283371,183.352615 148.897751,180.813766 
	C150.665375,180.667191 153.296173,177.646103 153.562820,175.694626 
	C153.998581,172.505463 151.491898,170.700562 148.038635,170.911133 
	C146.542267,171.002380 145.034164,171.160706 143.544998,171.068588 
	C132.443649,170.381866 121.126854,170.776291 110.290245,168.689240 
	C84.170372,163.658707 63.170372,150.726746 51.487286,125.662018 
	C48.767536,119.827110 46.798359,113.642349 44.341522,107.248192 
	C42.896492,110.998268 41.208405,114.458145 40.281769,118.111183 
	C39.674931,120.503487 39.409664,123.484009 40.297188,125.671234 
	C45.503975,138.502960 53.102295,149.721039 64.515907,158.983887 
M146.440201,57.999489 
	C133.783051,62.030876 121.108788,66.009834 108.480301,70.129097 
	C105.163605,71.210960 102.145554,72.951508 103.552498,77.302742 
	C104.705811,80.869606 107.782852,81.527245 112.681313,79.507996 
	C113.295479,79.254829 113.913002,79.008949 114.520180,78.739845 
	C150.152344,62.947411 186.534683,61.718113 223.554901,73.160248 
	C227.603317,74.411522 231.590149,75.862061 236.087814,77.383293 
	C233.503372,71.715866 222.553848,62.110973 217.572632,60.860577 
	C194.353836,55.032116 170.935623,53.701153 146.440201,57.999489 
M171.488556,221.820557 
	C130.880936,237.865555 91.353043,232.140396 51.264713,214.768311 
	C53.613602,218.228638 55.209061,220.342285 56.553146,222.605255 
	C60.039040,228.474289 64.953514,232.199127 71.723808,233.570450 
	C82.617546,235.776962 93.382629,238.896423 104.371986,240.296432 
	C128.686600,243.394012 152.477753,240.811813 175.308441,231.331741 
	C178.510193,230.002243 181.164215,228.238785 179.888123,224.341660 
	C178.646439,220.549530 175.672226,220.030273 171.488556,221.820557 
M129.436142,103.977509 
	C120.756363,108.940155 117.977798,109.409508 108.502174,99.357002 
	C106.914398,97.672562 105.607719,95.716293 104.230042,93.842339 
	C102.350243,91.285378 99.903008,90.588760 97.280998,92.264809 
	C94.409859,94.100113 93.785927,97.182945 95.998093,99.578384 
	C101.359505,105.383987 106.828262,111.183304 112.894882,116.211632 
	C116.833809,119.476402 122.193993,119.208580 126.661606,116.751686 
	C141.570770,108.552643 157.616913,106.090965 174.330688,106.582924 
	C177.928085,106.688812 180.904175,105.577682 180.946594,101.565849 
	C180.987839,97.663475 178.179733,96.263779 174.540756,96.192017 
	C159.269501,95.890892 144.336441,97.543419 129.436142,103.977509 
M175.972397,136.513687 
	C167.670212,136.287369 159.368073,136.059799 151.065842,135.835312 
	C147.405975,135.736328 144.031631,136.558792 144.040039,140.933609 
	C144.049057,145.622009 147.523102,145.967773 151.411591,146.118988 
	C162.355682,146.544586 173.374390,146.712799 184.196960,148.197617 
	C199.013947,150.230453 212.898651,155.226425 224.634552,165.029434 
	C227.026489,167.027435 229.888290,167.294739 231.656281,164.799973 
	C232.737030,163.274902 232.743332,160.514221 232.276428,158.533813 
	C231.966705,157.220139 230.032806,156.216034 228.711990,155.225311 
	C213.347504,143.700531 195.626389,138.735092 175.972397,136.513687 
M215.236328,102.243332 
	C210.443024,100.903664 205.667587,99.495049 200.850571,98.246895 
	C197.226318,97.307808 193.395096,97.137573 192.353561,101.673737 
	C191.321808,106.167274 194.626724,107.397652 198.435257,108.341347 
	C224.335037,114.759026 247.324783,126.318100 265.165436,146.780411 
	C265.402771,147.052643 265.991516,147.018524 266.628082,147.181702 
	C266.353455,144.333679 265.940521,141.704849 265.878113,139.067719 
	C265.737885,133.138519 263.018097,128.979126 258.317566,125.357834 
	C245.416275,115.418594 231.346542,107.806366 215.236328,102.243332 
M200.135452,255.603867 
	C199.173187,256.970123 198.210922,258.336365 197.032227,260.009918 
	C207.183151,258.119019 215.207199,251.774536 218.207626,242.994934 
	C219.809082,238.308884 221.130707,233.432007 221.786606,228.535172 
	C224.114029,211.159088 213.319778,191.969650 197.503174,184.589890 
	C194.460342,183.170151 191.848480,183.432556 190.223145,186.415115 
	C188.615616,189.364944 189.637711,191.810394 192.591583,193.498291 
	C194.173508,194.402237 195.687683,195.449783 197.136169,196.558289 
	C210.449463,206.746750 214.925720,219.285934 209.881699,235.291809 
	C207.714478,242.169006 203.742966,248.477600 200.135452,255.603867 
M227.907944,202.721893 
	C232.671783,212.927551 233.383041,223.877930 233.005295,235.540771 
	C242.882996,227.492508 244.037827,224.611313 241.872116,213.661713 
	C237.434235,191.224258 224.323196,175.433228 204.356171,164.914886 
	C201.083115,163.190674 197.921875,162.408051 195.863510,166.341064 
	C193.756104,170.367813 196.364990,172.374939 199.676880,174.007263 
	C212.164520,180.161896 221.613373,189.386703 227.907944,202.721893 
M89.026276,150.453796 
	C93.440094,152.762299 97.831703,155.114670 102.275002,157.364960 
	C105.620422,159.059189 108.307938,157.905457 109.619026,154.671234 
	C110.910530,151.485321 108.916695,149.660385 106.192215,147.943619 
	C96.806168,142.029266 87.509743,135.958939 78.389732,129.643951 
	C75.396584,127.571396 72.714584,126.354118 70.118126,129.387146 
	C67.534821,132.404800 68.735039,135.309555 71.647423,137.521317 
	C77.205193,141.742035 82.820374,145.887131 89.026276,150.453796 
M65.895325,101.411385 
	C65.895325,93.032242 65.895325,84.653107 65.895325,76.273964 
	C65.492142,76.026901 65.088959,75.779846 64.685776,75.532784 
	C61.411957,80.313416 55.719841,84.941597 55.406723,89.908859 
	C54.880478,98.257202 57.553539,106.868164 59.342842,115.270218 
	C60.017910,118.440155 62.868565,119.704033 66.062843,118.427032 
	C69.046577,117.234215 69.650017,114.752960 68.800812,111.816536 
	C67.880310,108.633583 66.960693,105.450356 65.895325,101.411385 
M245.152283,190.491608 
	C247.675919,196.783096 250.199539,203.074585 252.787415,209.526260 
	C253.965240,207.229736 255.082413,204.660522 256.538696,202.300537 
	C258.932678,198.420898 258.986450,194.664520 256.714386,190.742157 
	C253.725403,185.582199 250.896957,180.328552 247.868423,175.192474 
	C246.048645,172.106323 243.301208,170.419403 239.982620,172.661682 
	C236.681686,174.892029 237.282883,177.903458 239.342682,180.921158 
	C241.306290,183.797928 243.037308,186.833450 245.152283,190.491608 
z"/>
<path fill="#F4F4F4" opacity="1.000000" stroke="none" 
	d="
M208.923492,131.922729 
	C187.691910,125.141914 166.347565,124.236328 144.860657,127.155258 
	C133.691238,128.672577 129.138123,134.452972 130.204437,143.591797 
	C130.878189,149.366165 133.094788,152.211411 138.884979,152.805222 
	C145.320023,153.465179 151.885727,152.872025 158.314423,153.566360 
	C163.499588,154.126389 169.153168,154.726181 173.571472,157.167694 
	C185.589630,163.808823 186.356567,178.433365 175.707352,187.144287 
	C166.533401,194.648453 155.646072,198.440079 144.169907,199.769135 
	C107.424782,204.024506 74.443123,195.525284 47.002411,169.555374 
	C45.552750,168.183395 44.325363,166.554260 42.782917,165.306366 
	C34.623486,158.705215 32.401730,150.416138 35.899525,140.166214 
	C36.830399,141.415421 37.798691,142.607559 38.652790,143.876541 
	C67.115265,186.165100 112.679504,196.156235 150.393219,187.855911 
	C156.422867,186.528870 162.098053,183.256210 167.689240,180.398071 
	C171.037018,178.686737 173.628708,175.653809 172.698090,171.473953 
	C171.672409,166.867142 168.042587,164.596054 163.646317,164.096939 
	C159.696930,163.648544 155.662537,164.001648 151.670441,163.862793 
	C147.350708,163.712540 143.011551,163.616913 138.724945,163.118484 
	C128.473572,161.926483 122.817345,157.051666 120.697746,147.943375 
	C118.202568,137.221146 121.447601,126.668663 129.985321,122.109543 
	C135.575470,119.124420 142.055130,116.702980 148.299545,116.242699 
	C171.001068,114.569389 193.604034,115.364563 215.317017,123.485756 
	C235.960663,131.207001 252.173965,144.586716 264.527130,162.658234 
	C268.374237,168.286163 264.532562,173.995285 263.885864,181.143890 
	C251.089340,157.335434 233.560333,140.846832 208.923492,131.922729 
z"/>
<path fill="#F4F4F4" opacity="1.000000" stroke="none" 
	d="
M69.217560,209.768631 
	C61.576885,205.302902 54.379070,200.812988 46.950592,196.744202 
	C41.258472,193.626480 39.001125,188.647263 37.926357,182.710129 
	C37.493725,180.320190 36.870556,177.964752 36.297482,175.431747 
	C44.627987,181.639343 52.217308,188.146469 60.598049,193.388229 
	C92.325531,213.232346 126.102722,215.737915 161.292114,204.166061 
	C163.975067,203.283783 166.642685,202.348602 169.349533,201.546356 
	C182.243011,197.724915 193.383102,202.325500 199.193466,213.830292 
	C204.738800,224.810303 201.796021,237.938721 191.902115,245.668732 
	C181.375229,253.893280 168.937515,257.829041 156.079468,259.757507 
	C143.944305,261.577545 131.574402,261.799255 119.320412,262.869080 
	C106.859901,263.956909 96.978844,257.955505 87.255417,250.688690 
	C95.895309,251.196320 104.531036,251.794067 113.175926,252.193634 
	C133.960983,253.154373 154.476669,251.849365 174.063919,244.013000 
	C177.742218,242.541412 181.376053,240.689682 184.599319,238.405151 
	C191.570541,233.464233 193.514297,225.234924 189.849579,218.093567 
	C186.242233,211.064026 179.764877,208.510300 171.149246,211.634903 
	C155.040009,217.477219 138.590240,221.128738 121.392593,221.103317 
	C103.311546,221.076584 86.054115,217.287872 69.217560,209.768631 
z"/>
<path fill="#F4F4F4" opacity="1.000000" stroke="none" 
	d="
M99.372879,51.327057 
	C128.718185,35.129406 158.771881,34.932724 189.467056,44.744820 
	C189.495926,45.175503 189.524811,45.606182 189.553680,46.036865 
	C187.705368,46.036865 185.856445,46.067677 184.008820,46.032150 
	C162.653580,45.621567 141.348297,46.160725 120.873665,53.048187 
	C114.017365,55.354572 107.104088,58.400459 101.226295,62.541218 
	C81.357964,76.537971 81.680939,106.119209 101.465538,121.889870 
	C103.535545,123.539909 105.854988,124.875877 108.048935,126.371895 
	C110.718361,128.192123 112.001144,130.517029 110.083305,133.538712 
	C108.251663,136.424606 105.646378,136.822891 102.751945,135.125885 
	C86.480988,125.586235 77.084816,111.402512 76.299675,92.591255 
	C75.551674,74.669907 83.816849,60.971039 99.372879,51.327057 
z"/>
<path fill="#F4F4F4" opacity="1.000000" stroke="none" 
	d="
M257.984070,112.017212 
	C252.114182,108.643440 246.370926,105.022751 240.353699,101.936256 
	C203.312241,82.936150 165.307251,80.940346 126.455978,95.903969 
	C122.970459,97.246429 119.737541,97.836571 118.129539,93.697075 
	C116.516953,89.545815 119.439819,87.635330 122.787819,86.317047 
	C156.826035,72.914413 191.107086,72.363754 225.586060,84.498497 
	C229.967636,86.040588 234.110565,88.292175 238.530670,89.687126 
	C249.172836,93.045723 255.217819,100.487549 258.215088,111.310028 
	C258.176270,111.784729 257.984070,112.017204 257.984070,112.017212 
z"/>
<path fill="#F3F3F3" opacity="1.000000" stroke="none" 
	d="
M64.250755,158.747864 
	C53.102295,149.721039 45.503975,138.502960 40.297188,125.671234 
	C39.409664,123.484009 39.674931,120.503487 40.281769,118.111183 
	C41.208405,114.458145 42.896492,110.998268 44.341522,107.248192 
	C46.798359,113.642349 48.767536,119.827110 51.487286,125.662018 
	C63.170372,150.726746 84.170372,163.658707 110.290245,168.689240 
	C121.126854,170.776291 132.443649,170.381866 143.544998,171.068588 
	C145.034164,171.160706 146.542267,171.002380 148.038635,170.911133 
	C151.491898,170.700562 153.998581,172.505463 153.562820,175.694626 
	C153.296173,177.646103 150.665375,180.667191 148.897751,180.813766 
	C118.283371,183.352615 89.456261,178.556793 64.250755,158.747864 
z"/>
<path fill="#F4F4F4" opacity="1.000000" stroke="none" 
	d="
M146.863220,57.925491 
	C170.935623,53.701153 194.353836,55.032116 217.572632,60.860577 
	C222.553848,62.110973 233.503372,71.715866 236.087814,77.383293 
	C231.590149,75.862061 227.603317,74.411522 223.554901,73.160248 
	C186.534683,61.718113 150.152344,62.947411 114.520180,78.739845 
	C113.913002,79.008949 113.295479,79.254829 112.681313,79.507996 
	C107.782852,81.527245 104.705811,80.869606 103.552498,77.302742 
	C102.145554,72.951508 105.163605,71.210960 108.480301,70.129097 
	C121.108788,66.009834 133.783051,62.030876 146.863220,57.925491 
z"/>
<path fill="#F5F5F5" opacity="1.000000" stroke="none" 
	d="
M171.848328,221.624939 
	C175.672226,220.030273 178.646439,220.549530 179.888123,224.341660 
	C181.164215,228.238785 178.510193,230.002243 175.308441,231.331741 
	C152.477753,240.811813 128.686600,243.394012 104.371986,240.296432 
	C93.382629,238.896423 82.617546,235.776962 71.723808,233.570450 
	C64.953514,232.199127 60.039040,228.474289 56.553146,222.605255 
	C55.209061,220.342285 53.613602,218.228638 51.264713,214.768311 
	C91.353043,232.140396 130.880936,237.865555 171.848328,221.624939 
z"/>
<path fill="#F4F4F4" opacity="1.000000" stroke="none" 
	d="
M129.801849,103.849335 
	C144.336441,97.543419 159.269501,95.890892 174.540756,96.192017 
	C178.179733,96.263779 180.987839,97.663475 180.946594,101.565849 
	C180.904175,105.577682 177.928085,106.688812 174.330688,106.582924 
	C157.616913,106.090965 141.570770,108.552643 126.661606,116.751686 
	C122.193993,119.208580 116.833809,119.476402 112.894882,116.211632 
	C106.828262,111.183304 101.359505,105.383987 95.998093,99.578384 
	C93.785927,97.182945 94.409859,94.100113 97.280998,92.264809 
	C99.903008,90.588760 102.350243,91.285378 104.230042,93.842339 
	C105.607719,95.716293 106.914398,97.672562 108.502174,99.357002 
	C117.977798,109.409508 120.756363,108.940155 129.801849,103.849335 
z"/>
<path fill="#F6F6F6" opacity="1.000000" stroke="none" 
	d="
M176.421432,136.592926 
	C195.626389,138.735092 213.347504,143.700531 228.711990,155.225311 
	C230.032806,156.216034 231.966705,157.220139 232.276428,158.533813 
	C232.743332,160.514221 232.737030,163.274902 231.656281,164.799973 
	C229.888290,167.294739 227.026489,167.027435 224.634552,165.029434 
	C212.898651,155.226425 199.013947,150.230453 184.196960,148.197617 
	C173.374390,146.712799 162.355682,146.544586 151.411591,146.118988 
	C147.523102,145.967773 144.049057,145.622009 144.040039,140.933609 
	C144.031631,136.558792 147.405975,135.736328 151.065842,135.835312 
	C159.368073,136.059799 167.670212,136.287369 176.421432,136.592926 
z"/>
<path fill="#F3F3F3" opacity="1.000000" stroke="none" 
	d="
M215.595032,102.410110 
	C231.346542,107.806366 245.416275,115.418594 258.317566,125.357834 
	C263.018097,128.979126 265.737885,133.138519 265.878113,139.067719 
	C265.940521,141.704849 266.353455,144.333679 266.628082,147.181702 
	C265.991516,147.018524 265.402771,147.052643 265.165436,146.780411 
	C247.324783,126.318100 224.335037,114.759026 198.435257,108.341347 
	C194.626724,107.397652 191.321808,106.167274 192.353561,101.673737 
	C193.395096,97.137573 197.226318,97.307808 200.850571,98.246895 
	C205.667587,99.495049 210.443024,100.903664 215.595032,102.410110 
z"/>
<path fill="#F5F5F5" opacity="1.000000" stroke="none" 
	d="
M200.363312,255.324203 
	C203.742966,248.477600 207.714478,242.169006 209.881699,235.291809 
	C214.925720,219.285934 210.449463,206.746750 197.136169,196.558289 
	C195.687683,195.449783 194.173508,194.402237 192.591583,193.498291 
	C189.637711,191.810394 188.615616,189.364944 190.223145,186.415115 
	C191.848480,183.432556 194.460342,183.170151 197.503174,184.589890 
	C213.319778,191.969650 224.114029,211.159088 221.786606,228.535172 
	C221.130707,233.432007 219.809082,238.308884 218.207626,242.994934 
	C215.207199,251.774536 207.183151,258.119019 197.032227,260.009918 
	C198.210922,258.336365 199.173187,256.970123 200.363312,255.324203 
z"/>
<path fill="#F4F4F4" opacity="1.000000" stroke="none" 
	d="
M227.775574,202.365204 
	C221.613373,189.386703 212.164520,180.161896 199.676880,174.007263 
	C196.364990,172.374939 193.756104,170.367813 195.863510,166.341064 
	C197.921875,162.408051 201.083115,163.190674 204.356171,164.914886 
	C224.323196,175.433228 237.434235,191.224258 241.872116,213.661713 
	C244.037827,224.611313 242.882996,227.492508 233.005295,235.540771 
	C233.383041,223.877930 232.671783,212.927551 227.775574,202.365204 
z"/>
<path fill="#F3F3F3" opacity="1.000000" stroke="none" 
	d="
M88.719002,150.258713 
	C82.820374,145.887131 77.205193,141.742035 71.647423,137.521317 
	C68.735039,135.309555 67.534821,132.404800 70.118126,129.387146 
	C72.714584,126.354118 75.396584,127.571396 78.389732,129.643951 
	C87.509743,135.958939 96.806168,142.029266 106.192215,147.943619 
	C108.916695,149.660385 110.910530,151.485321 109.619026,154.671234 
	C108.307938,157.905457 105.620422,159.059189 102.275002,157.364960 
	C97.831703,155.114670 93.440094,152.762299 88.719002,150.258713 
z"/>
<path fill="#F3F3F3" opacity="1.000000" stroke="none" 
	d="
M65.968018,101.839317 
	C66.960693,105.450356 67.880310,108.633583 68.800812,111.816536 
	C69.650017,114.752960 69.046577,117.234215 66.062843,118.427032 
	C62.868565,119.704033 60.017910,118.440155 59.342842,115.270218 
	C57.553539,106.868164 54.880478,98.257202 55.406723,89.908859 
	C55.719841,84.941597 61.411957,80.313416 64.685776,75.532784 
	C65.088959,75.779846 65.492142,76.026901 65.895325,76.273964 
	C65.895325,84.653107 65.895325,93.032242 65.968018,101.839317 
z"/>
<path fill="#F3F3F3" opacity="1.000000" stroke="none" 
	d="
M245.011414,190.145401 
	C243.037308,186.833450 241.306290,183.797928 239.342682,180.921158 
	C237.282883,177.903458 236.681686,174.892029 239.982620,172.661682 
	C243.301208,170.419403 246.048645,172.106323 247.868423,175.192474 
	C250.896957,180.328552 253.725403,185.582199 256.714386,190.742157 
	C258.986450,194.664520 258.932678,198.420898 256.538696,202.300537 
	C255.082413,204.660522 253.965240,207.229736 252.787415,209.526260 
	C250.199539,203.074585 247.675919,196.783096 245.011414,190.145401 
z"/>
<path fill="#F4F4F4" opacity="1.000000" stroke="none" 
	d="
M258.271118,111.667435 
	C258.504425,111.827446 258.642914,112.104744 258.781403,112.382042 
	C258.525421,112.425873 258.269440,112.469711 257.998779,112.265373 
	C257.984070,112.017204 258.176270,111.784729 258.271118,111.667435 
z"/>
</svg>