<svg xmlns="http://www.w3.org/2000/svg" shape-rendering="geometricPrecision" viewBox="0 0 24 24" width="40" height="40" fill="#999999" stroke="none" stroke-width="0" data-v-26434996=""><path d="M12 0C5.377 0 0 5.377 0 12s5.377 12 12 12 12-5.377 12-12S18.623 0 12 0Zm0 .686C18.253.686 23.314 5.747 23.314 12S18.253 23.314 12 23.314.686 18.253.686 12 5.747.686 12 .686Z"></path><path d="m15.081 7.697-8.43 3.27c-.57.24-.57.54-.12.69l2.16.69.75 2.46c.09.27.06.39.33.39.21 0 .33-.09.45-.21l1.05-1.02 2.19 1.62c.39.21.69.12.78-.36l1.44-6.78c.18-.63-.21-.9-.6-.75zm-1.23 1.71-3.96 3.57-.06.87c.03.33-.24.36-.27.21l-.54-1.92 4.68-2.94c.21-.15.33.03.15.21z"></path>
            </svg>