<svg xmlns="http://www.w3.org/2000/svg" shape-rendering="geometricPrecision" viewBox="0 0 24 24" width="40" height="40" fill="#999999" stroke="none" stroke-width="0" data-v-26434996=""><path d="M12 24C5.383 24 0 18.617 0 12S5.383 0 12 0s12 5.383 12 12-5.383 12-12 12zM12 .873C5.864.873.873 5.864.873 12S5.864 23.128 12 23.128 23.128 18.136 23.128 12 18.136.873 12 .873z"></path><path d="M9.47 8.243h.08c.891 0 1.782-.004 2.673.002.355.003.713.017 1.065.052.441.043.849.189 1.191.482.284.245.43.565.482.932.045.317.02.629-.091.93a1.632 1.632 0 0 1-.865.939c-.021.01-.04.022-.06.033l.001.019c.023.006.047.013.071.018.438.107.818.305 1.106.658.206.251.304.546.34.867.035.343.014.682-.094 1.011-.156.47-.458.829-.87 1.097a2.82 2.82 0 0 1-1.151.418 7.064 7.064 0 0 1-.986.059H9.556c-.086 0-.086 0-.086-.088V8.243zm1.888 5.18c0 .29.001.578-.001.868 0 .059.017.075.076.075.318-.004.638-.004.958-.007.234-.001.459-.052.672-.149a.747.747 0 0 0 .416-.47c.045-.137.053-.278.046-.421-.015-.323-.161-.563-.464-.698a1.149 1.149 0 0 0-.472-.106c-.387-.009-.773-.009-1.159-.015-.056-.001-.073.013-.072.069v.854m0-3.007c0 .237.001.476-.002.713-.001.062.019.076.077.075.251-.004.504.002.755-.01.121-.005.241-.025.357-.061.186-.057.346-.155.427-.345a.949.949 0 0 0 .063-.578c-.042-.192-.126-.361-.311-.46a.913.913 0 0 0-.402-.107c-.301-.009-.602-.008-.901-.015-.054-.001-.065.018-.064.067.002.242.001.481.001.721"></path>
            </svg>