<svg xmlns="http://www.w3.org/2000/svg" shape-rendering="geometricPrecision" viewBox="0 0 24 24" width="40" height="40" fill="#999999" stroke="none" stroke-width="0" data-v-26434996=""><path d="M12 0C5.377 0 0 5.377 0 12s5.377 12 12 12 12-5.377 12-12S18.623 0 12 0Zm0 .686C18.253.686 23.314 5.747 23.314 12S18.253 23.314 12 23.314.686 18.253.686 12 5.747.686 12 .686Z"></path><path d="M16.409 9.876S16.385 8.23 14.76 8.23h-.024L8.481 8.3s-1.648.024-1.624 1.696l.048 3.465s.023 1.672 1.671 1.648l6.257-.097s1.648-.024 1.624-1.696zm-6.018 3.659-.024-3.707 3.152 1.817Z"></path>
            </svg>